<?xml version="1.0" encoding="UTF-8" standalone="no"?>
<!DOCTYPE svg PUBLIC "-//W3C//DTD SVG 1.1//EN"
 "http://www.w3.org/Graphics/SVG/1.1/DTD/svg11.dtd">
<!-- Generated by graphviz version 2.43.0 (0)
 -->
<!-- Title: %3 Pages: 1 -->
<svg width="691pt" height="1001pt"
 viewBox="0.00 0.00 690.59 1001.00" xmlns="http://www.w3.org/2000/svg" xmlns:xlink="http://www.w3.org/1999/xlink">
<g id="graph0" class="graph" transform="scale(1 1) rotate(0) translate(4 997)">
<title>%3</title>
<polygon fill="white" stroke="transparent" points="-4,4 -4,-997 686.59,-997 686.59,4 -4,4"/>
<!-- (0, 1) -->
<g id="node1" class="node">
<title>(0, 1)</title>
<ellipse fill="none" stroke="black" cx="558.65" cy="-975" rx="35.19" ry="18"/>
<text text-anchor="middle" x="558.65" y="-971.3" font-family="Times,serif" font-size="14.00">(0, 1)</text>
</g>
<!-- (19, 15) -->
<g id="node2" class="node">
<title>(19, 15)</title>
<ellipse fill="none" stroke="black" cx="558.65" cy="-888" rx="46.59" ry="18"/>
<text text-anchor="middle" x="558.65" y="-884.3" font-family="Times,serif" font-size="14.00">(19, 15)</text>
</g>
<!-- (0, 1)&#45;&#45;(19, 15) -->
<g id="edge1" class="edge">
<title>(0, 1)&#45;&#45;(19, 15)</title>
<path fill="none" stroke="black" d="M558.65,-956.8C558.65,-942.05 558.65,-920.92 558.65,-906.18"/>
<text text-anchor="middle" x="572.65" y="-927.8" font-family="Times,serif" font-size="14.00">196</text>
</g>
<!-- (19, 33) -->
<g id="node5" class="node">
<title>(19, 33)</title>
<ellipse fill="none" stroke="black" cx="505.65" cy="-801" rx="46.59" ry="18"/>
<text text-anchor="middle" x="505.65" y="-797.3" font-family="Times,serif" font-size="14.00">(19, 33)</text>
</g>
<!-- (19, 15)&#45;&#45;(19, 33) -->
<g id="edge9" class="edge">
<title>(19, 15)&#45;&#45;(19, 33)</title>
<path fill="none" stroke="black" d="M548.17,-870.21C538.88,-855.31 525.38,-833.65 516.09,-818.76"/>
<text text-anchor="middle" x="549.65" y="-840.8" font-family="Times,serif" font-size="14.00">117</text>
</g>
<!-- (39, 9) -->
<g id="node11" class="node">
<title>(39, 9)</title>
<ellipse fill="none" stroke="black" cx="579.65" cy="-627" rx="40.89" ry="18"/>
<text text-anchor="middle" x="579.65" y="-623.3" font-family="Times,serif" font-size="14.00">(39, 9)</text>
</g>
<!-- (19, 15)&#45;&#45;(39, 9) -->
<g id="edge10" class="edge">
<title>(19, 15)&#45;&#45;(39, 9)</title>
<path fill="none" stroke="black" d="M563.13,-870.02C564.47,-864.33 565.8,-857.92 566.65,-852 577.54,-775.45 579.35,-682.94 579.62,-645.24"/>
<text text-anchor="middle" x="590.65" y="-753.8" font-family="Times,serif" font-size="14.00">121</text>
</g>
<!-- (5, 65) -->
<g id="node3" class="node">
<title>(5, 65)</title>
<ellipse fill="none" stroke="black" cx="393.65" cy="-888" rx="40.89" ry="18"/>
<text text-anchor="middle" x="393.65" y="-884.3" font-family="Times,serif" font-size="14.00">(5, 65)</text>
</g>
<!-- (17, 85) -->
<g id="node4" class="node">
<title>(17, 85)</title>
<ellipse fill="none" stroke="black" cx="141.65" cy="-801" rx="46.59" ry="18"/>
<text text-anchor="middle" x="141.65" y="-797.3" font-family="Times,serif" font-size="14.00">(17, 85)</text>
</g>
<!-- (5, 65)&#45;&#45;(17, 85) -->
<g id="edge2" class="edge">
<title>(5, 65)&#45;&#45;(17, 85)</title>
<path fill="none" stroke="black" d="M362.24,-876.41C314.74,-860.39 224.98,-830.11 175.87,-813.54"/>
<text text-anchor="middle" x="297.65" y="-840.8" font-family="Times,serif" font-size="14.00">159</text>
</g>
<!-- (5, 65)&#45;&#45;(19, 33) -->
<g id="edge3" class="edge">
<title>(5, 65)&#45;&#45;(19, 33)</title>
<path fill="none" stroke="black" d="M413.41,-872C433.63,-856.65 464.9,-832.92 485.32,-817.42"/>
<text text-anchor="middle" x="470.65" y="-840.8" font-family="Times,serif" font-size="14.00">325</text>
</g>
<!-- (35, 59) -->
<g id="node6" class="node">
<title>(35, 59)</title>
<ellipse fill="none" stroke="black" cx="393.65" cy="-801" rx="46.59" ry="18"/>
<text text-anchor="middle" x="393.65" y="-797.3" font-family="Times,serif" font-size="14.00">(35, 59)</text>
</g>
<!-- (5, 65)&#45;&#45;(35, 59) -->
<g id="edge4" class="edge">
<title>(5, 65)&#45;&#45;(35, 59)</title>
<path fill="none" stroke="black" d="M393.65,-869.8C393.65,-855.05 393.65,-833.92 393.65,-819.18"/>
<text text-anchor="middle" x="407.65" y="-840.8" font-family="Times,serif" font-size="14.00">219</text>
</g>
<!-- (41, 85) -->
<g id="node10" class="node">
<title>(41, 85)</title>
<ellipse fill="none" stroke="black" cx="281.65" cy="-714" rx="46.59" ry="18"/>
<text text-anchor="middle" x="281.65" y="-710.3" font-family="Times,serif" font-size="14.00">(41, 85)</text>
</g>
<!-- (17, 85)&#45;&#45;(41, 85) -->
<g id="edge8" class="edge">
<title>(17, 85)&#45;&#45;(41, 85)</title>
<path fill="none" stroke="black" d="M136.19,-782.91C133.94,-772.31 133.32,-759.04 140.65,-750 164.96,-720 188.25,-741.62 225.65,-732 232.53,-730.23 239.84,-728.15 246.83,-726.08"/>
<text text-anchor="middle" x="154.65" y="-753.8" font-family="Times,serif" font-size="14.00">115</text>
</g>
<!-- (37, 33) -->
<g id="node12" class="node">
<title>(37, 33)</title>
<ellipse fill="none" stroke="black" cx="505.65" cy="-714" rx="46.59" ry="18"/>
<text text-anchor="middle" x="505.65" y="-710.3" font-family="Times,serif" font-size="14.00">(37, 33)</text>
</g>
<!-- (19, 33)&#45;&#45;(37, 33) -->
<g id="edge11" class="edge">
<title>(19, 33)&#45;&#45;(37, 33)</title>
<path fill="none" stroke="black" d="M505.65,-782.8C505.65,-768.05 505.65,-746.92 505.65,-732.18"/>
<text text-anchor="middle" x="515.15" y="-753.8" font-family="Times,serif" font-size="14.00">69</text>
</g>
<!-- (35, 59)&#45;&#45;(41, 85) -->
<g id="edge16" class="edge">
<title>(35, 59)&#45;&#45;(41, 85)</title>
<path fill="none" stroke="black" d="M373.36,-784.61C353.06,-769.2 322.02,-745.64 301.78,-730.28"/>
<text text-anchor="middle" x="358.65" y="-753.8" font-family="Times,serif" font-size="14.00">131</text>
</g>
<!-- (35, 59)&#45;&#45;(37, 33) -->
<g id="edge15" class="edge">
<title>(35, 59)&#45;&#45;(37, 33)</title>
<path fill="none" stroke="black" d="M413.93,-784.61C434.23,-769.2 465.27,-745.64 485.51,-730.28"/>
<text text-anchor="middle" x="470.65" y="-753.8" font-family="Times,serif" font-size="14.00">155</text>
</g>
<!-- (61, 67) -->
<g id="node14" class="node">
<title>(61, 67)</title>
<ellipse fill="none" stroke="black" cx="393.65" cy="-714" rx="46.59" ry="18"/>
<text text-anchor="middle" x="393.65" y="-710.3" font-family="Times,serif" font-size="14.00">(61, 67)</text>
</g>
<!-- (35, 59)&#45;&#45;(61, 67) -->
<g id="edge17" class="edge">
<title>(35, 59)&#45;&#45;(61, 67)</title>
<path fill="none" stroke="black" d="M393.65,-782.8C393.65,-768.05 393.65,-746.92 393.65,-732.18"/>
<text text-anchor="middle" x="407.65" y="-753.8" font-family="Times,serif" font-size="14.00">185</text>
</g>
<!-- (5, 109) -->
<g id="node7" class="node">
<title>(5, 109)</title>
<ellipse fill="none" stroke="black" cx="141.65" cy="-888" rx="46.59" ry="18"/>
<text text-anchor="middle" x="141.65" y="-884.3" font-family="Times,serif" font-size="14.00">(5, 109)</text>
</g>
<!-- (5, 109)&#45;&#45;(17, 85) -->
<g id="edge5" class="edge">
<title>(5, 109)&#45;&#45;(17, 85)</title>
<path fill="none" stroke="black" d="M141.65,-869.8C141.65,-855.05 141.65,-833.92 141.65,-819.18"/>
<text text-anchor="middle" x="155.65" y="-840.8" font-family="Times,serif" font-size="14.00">215</text>
</g>
<!-- (29, 113) -->
<g id="node8" class="node">
<title>(29, 113)</title>
<ellipse fill="none" stroke="black" cx="258.65" cy="-801" rx="52.79" ry="18"/>
<text text-anchor="middle" x="258.65" y="-797.3" font-family="Times,serif" font-size="14.00">(29, 113)</text>
</g>
<!-- (5, 109)&#45;&#45;(29, 113) -->
<g id="edge6" class="edge">
<title>(5, 109)&#45;&#45;(29, 113)</title>
<path fill="none" stroke="black" d="M162.56,-871.8C183.6,-856.52 215.87,-833.08 237.12,-817.64"/>
<text text-anchor="middle" x="217.15" y="-840.8" font-family="Times,serif" font-size="14.00">83</text>
</g>
<!-- (39, 123) -->
<g id="node9" class="node">
<title>(39, 123)</title>
<ellipse fill="none" stroke="black" cx="52.65" cy="-714" rx="52.79" ry="18"/>
<text text-anchor="middle" x="52.65" y="-710.3" font-family="Times,serif" font-size="14.00">(39, 123)</text>
</g>
<!-- (5, 109)&#45;&#45;(39, 123) -->
<g id="edge7" class="edge">
<title>(5, 109)&#45;&#45;(39, 123)</title>
<path fill="none" stroke="black" d="M114.49,-873.18C94.91,-861.6 69.86,-843.1 57.65,-819 43.59,-791.27 46.16,-753.85 49.37,-732.29"/>
<text text-anchor="middle" x="71.65" y="-797.3" font-family="Times,serif" font-size="14.00">507</text>
</g>
<!-- (29, 113)&#45;&#45;(39, 123) -->
<g id="edge12" class="edge">
<title>(29, 113)&#45;&#45;(39, 123)</title>
<path fill="none" stroke="black" d="M227.48,-786.38C214.79,-780.39 200.2,-772.92 187.65,-765 178.55,-759.26 178.19,-754.97 168.65,-750 161.63,-746.34 122.77,-734.89 91.93,-726.07"/>
<text text-anchor="middle" x="197.15" y="-753.8" font-family="Times,serif" font-size="14.00">55</text>
</g>
<!-- (29, 113)&#45;&#45;(41, 85) -->
<g id="edge13" class="edge">
<title>(29, 113)&#45;&#45;(41, 85)</title>
<path fill="none" stroke="black" d="M263.3,-782.8C267.29,-768.05 273.01,-746.92 277,-732.18"/>
<text text-anchor="middle" x="285.65" y="-753.8" font-family="Times,serif" font-size="14.00">207</text>
</g>
<!-- (55, 99) -->
<g id="node13" class="node">
<title>(55, 99)</title>
<ellipse fill="none" stroke="black" cx="169.65" cy="-714" rx="46.59" ry="18"/>
<text text-anchor="middle" x="169.65" y="-710.3" font-family="Times,serif" font-size="14.00">(55, 99)</text>
</g>
<!-- (29, 113)&#45;&#45;(55, 99) -->
<g id="edge14" class="edge">
<title>(29, 113)&#45;&#45;(55, 99)</title>
<path fill="none" stroke="black" d="M243.48,-783.39C234.22,-773.46 222.02,-760.73 210.65,-750 203.7,-743.45 195.78,-736.56 188.77,-730.65"/>
<text text-anchor="middle" x="239.65" y="-753.8" font-family="Times,serif" font-size="14.00">155</text>
</g>
<!-- (67, 123) -->
<g id="node17" class="node">
<title>(67, 123)</title>
<ellipse fill="none" stroke="black" cx="84.65" cy="-627" rx="52.79" ry="18"/>
<text text-anchor="middle" x="84.65" y="-623.3" font-family="Times,serif" font-size="14.00">(67, 123)</text>
</g>
<!-- (39, 123)&#45;&#45;(67, 123) -->
<g id="edge21" class="edge">
<title>(39, 123)&#45;&#45;(67, 123)</title>
<path fill="none" stroke="black" d="M55.98,-696.01C58.18,-686.18 61.43,-673.68 65.65,-663 68.08,-656.83 71.36,-650.36 74.51,-644.69"/>
<text text-anchor="middle" x="79.65" y="-666.8" font-family="Times,serif" font-size="14.00">227</text>
</g>
<!-- (67, 87) -->
<g id="node18" class="node">
<title>(67, 87)</title>
<ellipse fill="none" stroke="black" cx="253.65" cy="-627" rx="46.59" ry="18"/>
<text text-anchor="middle" x="253.65" y="-623.3" font-family="Times,serif" font-size="14.00">(67, 87)</text>
</g>
<!-- (41, 85)&#45;&#45;(67, 87) -->
<g id="edge22" class="edge">
<title>(41, 85)&#45;&#45;(67, 87)</title>
<path fill="none" stroke="black" d="M260.47,-697.76C254.54,-692.27 248.83,-685.55 245.65,-678 241.27,-667.63 243.27,-655.13 246.36,-645.23"/>
<text text-anchor="middle" x="259.65" y="-666.8" font-family="Times,serif" font-size="14.00">115</text>
</g>
<!-- (59, 13) -->
<g id="node16" class="node">
<title>(59, 13)</title>
<ellipse fill="none" stroke="black" cx="579.65" cy="-540" rx="46.59" ry="18"/>
<text text-anchor="middle" x="579.65" y="-536.3" font-family="Times,serif" font-size="14.00">(59, 13)</text>
</g>
<!-- (39, 9)&#45;&#45;(59, 13) -->
<g id="edge20" class="edge">
<title>(39, 9)&#45;&#45;(59, 13)</title>
<path fill="none" stroke="black" d="M579.65,-608.8C579.65,-594.05 579.65,-572.92 579.65,-558.18"/>
<text text-anchor="middle" x="593.65" y="-579.8" font-family="Times,serif" font-size="14.00">183</text>
</g>
<!-- (37, 33)&#45;&#45;(39, 9) -->
<g id="edge18" class="edge">
<title>(37, 33)&#45;&#45;(39, 9)</title>
<path fill="none" stroke="black" d="M515.25,-695.95C521.32,-685.87 529.69,-673.13 538.65,-663 544.97,-655.85 552.76,-648.84 559.85,-642.99"/>
<text text-anchor="middle" x="552.65" y="-666.8" font-family="Times,serif" font-size="14.00">109</text>
</g>
<!-- (65, 33) -->
<g id="node15" class="node">
<title>(65, 33)</title>
<ellipse fill="none" stroke="black" cx="535.65" cy="-453" rx="46.59" ry="18"/>
<text text-anchor="middle" x="535.65" y="-449.3" font-family="Times,serif" font-size="14.00">(65, 33)</text>
</g>
<!-- (37, 33)&#45;&#45;(65, 33) -->
<g id="edge19" class="edge">
<title>(37, 33)&#45;&#45;(65, 33)</title>
<path fill="none" stroke="black" d="M506.8,-695.83C509.15,-662.31 515.01,-585.87 523.65,-522 526.01,-504.54 529.61,-484.71 532.25,-470.99"/>
<text text-anchor="middle" x="531.65" y="-579.8" font-family="Times,serif" font-size="14.00">219</text>
</g>
<!-- (55, 99)&#45;&#45;(67, 123) -->
<g id="edge24" class="edge">
<title>(55, 99)&#45;&#45;(67, 123)</title>
<path fill="none" stroke="black" d="M149.82,-697.62C142.61,-691.73 134.54,-684.79 127.65,-678 117.04,-667.56 106.12,-654.83 97.93,-644.83"/>
<text text-anchor="middle" x="141.65" y="-666.8" font-family="Times,serif" font-size="14.00">151</text>
</g>
<!-- (55, 99)&#45;&#45;(67, 87) -->
<g id="edge23" class="edge">
<title>(55, 99)&#45;&#45;(67, 87)</title>
<path fill="none" stroke="black" d="M185.45,-697.01C200.37,-681.91 222.64,-659.38 237.63,-644.21"/>
<text text-anchor="middle" x="227.15" y="-666.8" font-family="Times,serif" font-size="14.00">51</text>
</g>
<!-- (81, 99) -->
<g id="node19" class="node">
<title>(81, 99)</title>
<ellipse fill="none" stroke="black" cx="188.65" cy="-453" rx="46.59" ry="18"/>
<text text-anchor="middle" x="188.65" y="-449.3" font-family="Times,serif" font-size="14.00">(81, 99)</text>
</g>
<!-- (55, 99)&#45;&#45;(81, 99) -->
<g id="edge25" class="edge">
<title>(55, 99)&#45;&#45;(81, 99)</title>
<path fill="none" stroke="black" d="M170.89,-696.01C174.33,-649.08 183.95,-518.06 187.39,-471.06"/>
<text text-anchor="middle" x="193.65" y="-579.8" font-family="Times,serif" font-size="14.00">117</text>
</g>
<!-- (61, 67)&#45;&#45;(65, 33) -->
<g id="edge28" class="edge">
<title>(61, 67)&#45;&#45;(65, 33)</title>
<path fill="none" stroke="black" d="M377.47,-697.05C353.24,-671.15 312.62,-618.55 334.65,-576 367.48,-512.56 449.35,-478.84 497.87,-463.86"/>
<text text-anchor="middle" x="348.65" y="-579.8" font-family="Times,serif" font-size="14.00">209</text>
</g>
<!-- (61, 67)&#45;&#45;(67, 87) -->
<g id="edge29" class="edge">
<title>(61, 67)&#45;&#45;(67, 87)</title>
<path fill="none" stroke="black" d="M358.05,-702.25C334.81,-694.84 306.93,-685.09 296.65,-678 283.82,-669.16 272.49,-655.61 264.68,-644.84"/>
<text text-anchor="middle" x="310.65" y="-666.8" font-family="Times,serif" font-size="14.00">125</text>
</g>
<!-- (75, 67) -->
<g id="node21" class="node">
<title>(75, 67)</title>
<ellipse fill="none" stroke="black" cx="417.65" cy="-627" rx="46.59" ry="18"/>
<text text-anchor="middle" x="417.65" y="-623.3" font-family="Times,serif" font-size="14.00">(75, 67)</text>
</g>
<!-- (61, 67)&#45;&#45;(75, 67) -->
<g id="edge30" class="edge">
<title>(61, 67)&#45;&#45;(75, 67)</title>
<path fill="none" stroke="black" d="M398.5,-695.8C402.67,-681.05 408.63,-659.92 412.8,-645.18"/>
<text text-anchor="middle" x="417.15" y="-666.8" font-family="Times,serif" font-size="14.00">29</text>
</g>
<!-- (81, 35) -->
<g id="node22" class="node">
<title>(81, 35)</title>
<ellipse fill="none" stroke="black" cx="509.65" cy="-366" rx="46.59" ry="18"/>
<text text-anchor="middle" x="509.65" y="-362.3" font-family="Times,serif" font-size="14.00">(81, 35)</text>
</g>
<!-- (65, 33)&#45;&#45;(81, 35) -->
<g id="edge31" class="edge">
<title>(65, 33)&#45;&#45;(81, 35)</title>
<path fill="none" stroke="black" d="M530.38,-434.8C525.87,-420.05 519.41,-398.92 514.9,-384.18"/>
<text text-anchor="middle" x="534.15" y="-405.8" font-family="Times,serif" font-size="14.00">33</text>
</g>
<!-- (59, 13)&#45;&#45;(65, 33) -->
<g id="edge26" class="edge">
<title>(59, 13)&#45;&#45;(65, 33)</title>
<path fill="none" stroke="black" d="M570.95,-522.21C563.24,-507.31 552.03,-485.65 544.32,-470.76"/>
<text text-anchor="middle" x="570.15" y="-492.8" font-family="Times,serif" font-size="14.00">85</text>
</g>
<!-- (81, 7) -->
<g id="node20" class="node">
<title>(81, 7)</title>
<ellipse fill="none" stroke="black" cx="641.65" cy="-453" rx="40.89" ry="18"/>
<text text-anchor="middle" x="641.65" y="-449.3" font-family="Times,serif" font-size="14.00">(81, 7)</text>
</g>
<!-- (59, 13)&#45;&#45;(81, 7) -->
<g id="edge27" class="edge">
<title>(59, 13)&#45;&#45;(81, 7)</title>
<path fill="none" stroke="black" d="M591.89,-522.21C602.83,-507.21 618.77,-485.37 629.63,-470.47"/>
<text text-anchor="middle" x="628.65" y="-492.8" font-family="Times,serif" font-size="14.00">151</text>
</g>
<!-- (85, 137) -->
<g id="node24" class="node">
<title>(85, 137)</title>
<ellipse fill="none" stroke="black" cx="84.65" cy="-366" rx="52.79" ry="18"/>
<text text-anchor="middle" x="84.65" y="-362.3" font-family="Times,serif" font-size="14.00">(85, 137)</text>
</g>
<!-- (67, 123)&#45;&#45;(85, 137) -->
<g id="edge33" class="edge">
<title>(67, 123)&#45;&#45;(85, 137)</title>
<path fill="none" stroke="black" d="M84.65,-608.6C84.65,-561.42 84.65,-431.41 84.65,-384.32"/>
<text text-anchor="middle" x="98.65" y="-492.8" font-family="Times,serif" font-size="14.00">127</text>
</g>
<!-- (81, 77) -->
<g id="node23" class="node">
<title>(81, 77)</title>
<ellipse fill="none" stroke="black" cx="259.65" cy="-540" rx="46.59" ry="18"/>
<text text-anchor="middle" x="259.65" y="-536.3" font-family="Times,serif" font-size="14.00">(81, 77)</text>
</g>
<!-- (67, 87)&#45;&#45;(81, 77) -->
<g id="edge32" class="edge">
<title>(67, 87)&#45;&#45;(81, 77)</title>
<path fill="none" stroke="black" d="M254.86,-608.8C255.9,-594.05 257.39,-572.92 258.43,-558.18"/>
<text text-anchor="middle" x="267.15" y="-579.8" font-family="Times,serif" font-size="14.00">71</text>
</g>
<!-- (81, 99)&#45;&#45;(85, 137) -->
<g id="edge42" class="edge">
<title>(81, 99)&#45;&#45;(85, 137)</title>
<path fill="none" stroke="black" d="M169.57,-436.41C150.92,-421.17 122.68,-398.08 103.95,-382.78"/>
<text text-anchor="middle" x="157.65" y="-405.8" font-family="Times,serif" font-size="14.00">217</text>
</g>
<!-- (99, 105) -->
<g id="node29" class="node">
<title>(99, 105)</title>
<ellipse fill="none" stroke="black" cx="209.65" cy="-366" rx="52.79" ry="18"/>
<text text-anchor="middle" x="209.65" y="-362.3" font-family="Times,serif" font-size="14.00">(99, 105)</text>
</g>
<!-- (81, 99)&#45;&#45;(99, 105) -->
<g id="edge43" class="edge">
<title>(81, 99)&#45;&#45;(99, 105)</title>
<path fill="none" stroke="black" d="M192.89,-434.8C196.54,-420.05 201.76,-398.92 205.4,-384.18"/>
<text text-anchor="middle" x="210.15" y="-405.8" font-family="Times,serif" font-size="14.00">99</text>
</g>
<!-- (81, 7)&#45;&#45;(81, 35) -->
<g id="edge37" class="edge">
<title>(81, 7)&#45;&#45;(81, 35)</title>
<path fill="none" stroke="black" d="M619.55,-437.77C595.48,-422.27 557.14,-397.59 532.7,-381.85"/>
<text text-anchor="middle" x="597.65" y="-405.8" font-family="Times,serif" font-size="14.00">203</text>
</g>
<!-- (105, 5) -->
<g id="node26" class="node">
<title>(105, 5)</title>
<ellipse fill="none" stroke="black" cx="621.65" cy="-366" rx="46.59" ry="18"/>
<text text-anchor="middle" x="621.65" y="-362.3" font-family="Times,serif" font-size="14.00">(105, 5)</text>
</g>
<!-- (81, 7)&#45;&#45;(105, 5) -->
<g id="edge38" class="edge">
<title>(81, 7)&#45;&#45;(105, 5)</title>
<path fill="none" stroke="black" d="M637.6,-434.8C634.13,-420.05 629.15,-398.92 625.69,-384.18"/>
<text text-anchor="middle" x="647.65" y="-405.8" font-family="Times,serif" font-size="14.00">181</text>
</g>
<!-- (75, 67)&#45;&#45;(81, 35) -->
<g id="edge34" class="edge">
<title>(75, 67)&#45;&#45;(81, 35)</title>
<path fill="none" stroke="black" d="M427.73,-609.29C430.87,-603.62 434.16,-597.16 436.65,-591 463.53,-524.3 455.51,-502.75 479.65,-435 486.01,-417.13 494.96,-397.36 501.42,-383.77"/>
<text text-anchor="middle" x="478.65" y="-492.8" font-family="Times,serif" font-size="14.00">185</text>
</g>
<!-- (75, 67)&#45;&#45;(81, 77) -->
<g id="edge35" class="edge">
<title>(75, 67)&#45;&#45;(81, 77)</title>
<path fill="none" stroke="black" d="M404.45,-609.59C394.95,-598.72 381.27,-584.88 366.65,-576 346.1,-563.52 320.59,-554.95 299.64,-549.42"/>
<text text-anchor="middle" x="395.15" y="-579.8" font-family="Times,serif" font-size="14.00">35</text>
</g>
<!-- (111, 55) -->
<g id="node25" class="node">
<title>(111, 55)</title>
<ellipse fill="none" stroke="black" cx="422.65" cy="-192" rx="52.79" ry="18"/>
<text text-anchor="middle" x="422.65" y="-188.3" font-family="Times,serif" font-size="14.00">(111, 55)</text>
</g>
<!-- (75, 67)&#45;&#45;(111, 55) -->
<g id="edge36" class="edge">
<title>(75, 67)&#45;&#45;(111, 55)</title>
<path fill="none" stroke="black" d="M419.25,-608.76C420.72,-591.6 422.65,-564.5 422.65,-541 422.65,-541 422.65,-541 422.65,-278 422.65,-254.54 422.65,-227.43 422.65,-210.26"/>
<text text-anchor="middle" x="436.65" y="-405.8" font-family="Times,serif" font-size="14.00">239</text>
</g>
<!-- (109, 43) -->
<g id="node27" class="node">
<title>(109, 43)</title>
<ellipse fill="none" stroke="black" cx="509.65" cy="-279" rx="52.79" ry="18"/>
<text text-anchor="middle" x="509.65" y="-275.3" font-family="Times,serif" font-size="14.00">(109, 43)</text>
</g>
<!-- (81, 35)&#45;&#45;(109, 43) -->
<g id="edge39" class="edge">
<title>(81, 35)&#45;&#45;(109, 43)</title>
<path fill="none" stroke="black" d="M509.65,-347.8C509.65,-333.05 509.65,-311.92 509.65,-297.18"/>
<text text-anchor="middle" x="523.65" y="-318.8" font-family="Times,serif" font-size="14.00">231</text>
</g>
<!-- (81, 77)&#45;&#45;(81, 99) -->
<g id="edge40" class="edge">
<title>(81, 77)&#45;&#45;(81, 99)</title>
<path fill="none" stroke="black" d="M245.96,-522.61C233.38,-507.56 214.85,-485.37 202.29,-470.34"/>
<text text-anchor="middle" x="242.65" y="-492.8" font-family="Times,serif" font-size="14.00">137</text>
</g>
<!-- (101, 77) -->
<g id="node28" class="node">
<title>(101, 77)</title>
<ellipse fill="none" stroke="black" cx="341.65" cy="-279" rx="52.79" ry="18"/>
<text text-anchor="middle" x="341.65" y="-275.3" font-family="Times,serif" font-size="14.00">(101, 77)</text>
</g>
<!-- (81, 77)&#45;&#45;(101, 77) -->
<g id="edge41" class="edge">
<title>(81, 77)&#45;&#45;(101, 77)</title>
<path fill="none" stroke="black" d="M265.03,-522.01C279.88,-475.08 321.36,-344.06 336.25,-297.06"/>
<text text-anchor="middle" x="312.15" y="-405.8" font-family="Times,serif" font-size="14.00">83</text>
</g>
<!-- (109, 123) -->
<g id="node30" class="node">
<title>(109, 123)</title>
<ellipse fill="none" stroke="black" cx="77.65" cy="-279" rx="58.49" ry="18"/>
<text text-anchor="middle" x="77.65" y="-275.3" font-family="Times,serif" font-size="14.00">(109, 123)</text>
</g>
<!-- (85, 137)&#45;&#45;(109, 123) -->
<g id="edge44" class="edge">
<title>(85, 137)&#45;&#45;(109, 123)</title>
<path fill="none" stroke="black" d="M83.23,-347.8C82.01,-333.05 80.27,-311.92 79.06,-297.18"/>
<text text-anchor="middle" x="95.65" y="-318.8" font-family="Times,serif" font-size="14.00">185</text>
</g>
<!-- (127, 59) -->
<g id="node35" class="node">
<title>(127, 59)</title>
<ellipse fill="none" stroke="black" cx="422.65" cy="-105" rx="52.79" ry="18"/>
<text text-anchor="middle" x="422.65" y="-101.3" font-family="Times,serif" font-size="14.00">(127, 59)</text>
</g>
<!-- (111, 55)&#45;&#45;(127, 59) -->
<g id="edge55" class="edge">
<title>(111, 55)&#45;&#45;(127, 59)</title>
<path fill="none" stroke="black" d="M422.65,-173.8C422.65,-159.05 422.65,-137.92 422.65,-123.18"/>
<text text-anchor="middle" x="432.15" y="-144.8" font-family="Times,serif" font-size="14.00">95</text>
</g>
<!-- (105, 5)&#45;&#45;(109, 43) -->
<g id="edge50" class="edge">
<title>(105, 5)&#45;&#45;(109, 43)</title>
<path fill="none" stroke="black" d="M601,-349.74C592.78,-343.63 583.24,-336.51 574.65,-330 559.66,-318.66 542.85,-305.72 530.08,-295.85"/>
<text text-anchor="middle" x="588.65" y="-318.8" font-family="Times,serif" font-size="14.00">281</text>
</g>
<!-- (137, 41) -->
<g id="node33" class="node">
<title>(137, 41)</title>
<ellipse fill="none" stroke="black" cx="509.65" cy="-18" rx="52.79" ry="18"/>
<text text-anchor="middle" x="509.65" y="-14.3" font-family="Times,serif" font-size="14.00">(137, 41)</text>
</g>
<!-- (105, 5)&#45;&#45;(137, 41) -->
<g id="edge51" class="edge">
<title>(105, 5)&#45;&#45;(137, 41)</title>
<path fill="none" stroke="black" d="M620.04,-347.76C618.57,-330.6 616.65,-303.5 616.65,-280 616.65,-280 616.65,-280 616.65,-104 616.65,-67.23 577.42,-43.82 546.47,-31.08"/>
<text text-anchor="middle" x="630.65" y="-188.3" font-family="Times,serif" font-size="14.00">407</text>
</g>
<!-- (109, 43)&#45;&#45;(111, 55) -->
<g id="edge52" class="edge">
<title>(109, 43)&#45;&#45;(111, 55)</title>
<path fill="none" stroke="black" d="M492.87,-261.61C477.47,-246.56 454.76,-224.37 439.37,-209.34"/>
<text text-anchor="middle" x="481.15" y="-231.8" font-family="Times,serif" font-size="14.00">61</text>
</g>
<!-- (109, 43)&#45;&#45;(137, 41) -->
<g id="edge53" class="edge">
<title>(109, 43)&#45;&#45;(137, 41)</title>
<path fill="none" stroke="black" d="M509.65,-260.6C509.65,-213.42 509.65,-83.41 509.65,-36.32"/>
<text text-anchor="middle" x="523.65" y="-144.8" font-family="Times,serif" font-size="14.00">133</text>
</g>
<!-- (101, 77)&#45;&#45;(111, 55) -->
<g id="edge48" class="edge">
<title>(101, 77)&#45;&#45;(111, 55)</title>
<path fill="none" stroke="black" d="M353.45,-261.06C360.79,-251.02 370.69,-238.28 380.65,-228 387.12,-221.32 394.79,-214.62 401.79,-208.9"/>
<text text-anchor="middle" x="394.65" y="-231.8" font-family="Times,serif" font-size="14.00">127</text>
</g>
<!-- (137, 81) -->
<g id="node32" class="node">
<title>(137, 81)</title>
<ellipse fill="none" stroke="black" cx="341.65" cy="-18" rx="52.79" ry="18"/>
<text text-anchor="middle" x="341.65" y="-14.3" font-family="Times,serif" font-size="14.00">(137, 81)</text>
</g>
<!-- (101, 77)&#45;&#45;(137, 81) -->
<g id="edge49" class="edge">
<title>(101, 77)&#45;&#45;(137, 81)</title>
<path fill="none" stroke="black" d="M341.65,-260.6C341.65,-213.42 341.65,-83.41 341.65,-36.32"/>
<text text-anchor="middle" x="355.65" y="-144.8" font-family="Times,serif" font-size="14.00">207</text>
</g>
<!-- (99, 105)&#45;&#45;(101, 77) -->
<g id="edge45" class="edge">
<title>(99, 105)&#45;&#45;(101, 77)</title>
<path fill="none" stroke="black" d="M225.94,-348.84C237.07,-338.35 252.49,-324.86 267.65,-315 280.51,-306.63 295.69,-299.1 308.95,-293.18"/>
<text text-anchor="middle" x="281.65" y="-318.8" font-family="Times,serif" font-size="14.00">121</text>
</g>
<!-- (99, 105)&#45;&#45;(109, 123) -->
<g id="edge46" class="edge">
<title>(99, 105)&#45;&#45;(109, 123)</title>
<path fill="none" stroke="black" d="M186.05,-349.8C162.32,-334.52 125.9,-311.08 101.93,-295.64"/>
<text text-anchor="middle" x="165.65" y="-318.8" font-family="Times,serif" font-size="14.00">123</text>
</g>
<!-- (125, 103) -->
<g id="node31" class="node">
<title>(125, 103)</title>
<ellipse fill="none" stroke="black" cx="212.65" cy="-279" rx="58.49" ry="18"/>
<text text-anchor="middle" x="212.65" y="-275.3" font-family="Times,serif" font-size="14.00">(125, 103)</text>
</g>
<!-- (99, 105)&#45;&#45;(125, 103) -->
<g id="edge47" class="edge">
<title>(99, 105)&#45;&#45;(125, 103)</title>
<path fill="none" stroke="black" d="M210.25,-347.8C210.77,-333.05 211.52,-311.92 212.04,-297.18"/>
<text text-anchor="middle" x="225.65" y="-318.8" font-family="Times,serif" font-size="14.00">139</text>
</g>
<!-- (127, 125) -->
<g id="node34" class="node">
<title>(127, 125)</title>
<ellipse fill="none" stroke="black" cx="148.65" cy="-192" rx="58.49" ry="18"/>
<text text-anchor="middle" x="148.65" y="-188.3" font-family="Times,serif" font-size="14.00">(127, 125)</text>
</g>
<!-- (109, 123)&#45;&#45;(127, 125) -->
<g id="edge54" class="edge">
<title>(109, 123)&#45;&#45;(127, 125)</title>
<path fill="none" stroke="black" d="M91.67,-261.21C104.12,-246.31 122.21,-224.65 134.65,-209.76"/>
<text text-anchor="middle" x="131.65" y="-231.8" font-family="Times,serif" font-size="14.00">171</text>
</g>
<!-- (125, 103)&#45;&#45;(137, 81) -->
<g id="edge57" class="edge">
<title>(125, 103)&#45;&#45;(137, 81)</title>
<path fill="none" stroke="black" d="M221.11,-261.01C244.48,-214.08 309.74,-83.06 333.15,-36.06"/>
<text text-anchor="middle" x="294.65" y="-144.8" font-family="Times,serif" font-size="14.00">173</text>
</g>
<!-- (125, 103)&#45;&#45;(127, 125) -->
<g id="edge56" class="edge">
<title>(125, 103)&#45;&#45;(127, 125)</title>
<path fill="none" stroke="black" d="M200,-261.21C188.78,-246.31 172.48,-224.65 161.26,-209.76"/>
<text text-anchor="middle" x="198.65" y="-231.8" font-family="Times,serif" font-size="14.00">147</text>
</g>
<!-- (140, 139) -->
<g id="node36" class="node">
<title>(140, 139)</title>
<ellipse fill="none" stroke="black" cx="148.65" cy="-105" rx="58.49" ry="18"/>
<text text-anchor="middle" x="148.65" y="-101.3" font-family="Times,serif" font-size="14.00">(140, 139)</text>
</g>
<!-- (127, 125)&#45;&#45;(140, 139) -->
<g id="edge60" class="edge">
<title>(127, 125)&#45;&#45;(140, 139)</title>
<path fill="none" stroke="black" d="M148.65,-173.8C148.65,-159.05 148.65,-137.92 148.65,-123.18"/>
<text text-anchor="middle" x="162.65" y="-144.8" font-family="Times,serif" font-size="14.00">174</text>
</g>
<!-- (127, 59)&#45;&#45;(137, 81) -->
<g id="edge59" class="edge">
<title>(127, 59)&#45;&#45;(137, 81)</title>
<path fill="none" stroke="black" d="M407.03,-87.61C392.68,-72.56 371.54,-50.37 357.21,-35.34"/>
<text text-anchor="middle" x="401.65" y="-57.8" font-family="Times,serif" font-size="14.00">159</text>
</g>
<!-- (127, 59)&#45;&#45;(137, 41) -->
<g id="edge58" class="edge">
<title>(127, 59)&#45;&#45;(137, 41)</title>
<path fill="none" stroke="black" d="M436.67,-87.24C445.27,-77.26 456.71,-64.53 467.65,-54 474.48,-47.42 482.39,-40.64 489.48,-34.82"/>
<text text-anchor="middle" x="481.65" y="-57.8" font-family="Times,serif" font-size="14.00">107</text>
</g>
</g>
</svg>
